<?xml version="1.0" standalone="no"?><!DOCTYPE svg PUBLIC "-//W3C//DTD SVG 1.1//EN" "http://www.w3.org/Graphics/SVG/1.1/DTD/svg11.dtd"><svg t="1598164792327" class="icon" viewBox="0 0 1024 1024" version="1.1" xmlns="http://www.w3.org/2000/svg" p-id="2930" xmlns:xlink="http://www.w3.org/1999/xlink" width="200" height="200"><defs><style type="text/css"></style></defs><path d="M512 192c212 0 384 170.4 384 380.8 0 88.416-30.56 172.224-85.376 239.392l-27.936 32.896-49.312-42.336 19.68-21.632 1.92-2.176a313.472 313.472 0 0 0 76.448-186.912L752 592v-64h76.8a313.856 313.856 0 0 0-68.48-155.04l-46.944 46.912-45.248-45.248 46.784-46.816A320.192 320.192 0 0 0 544 257.6L544 352h-64V257.568c-64.544 6.336-123.424 31.68-170.88 70.24l46.752 46.816-45.248 45.248-46.944-46.912A313.856 313.856 0 0 0 195.2 528h76.8v64H192.576c4 66.912 28.864 129.664 69.824 178.432l28.352 32.32-47.776 42.336-21.024-23.68C162.048 755.264 128 666.4 128 572.768 128 362.4 300 192 512 192z m118.464 252.48l45.376 45.152-102.592 102.144c5.696 21.28 0.224 44.8-16.48 61.536a63.648 63.648 0 0 1-90.08 0 63.648 63.648 0 0 1 0-90.08 63.488 63.488 0 0 1 56.16-17.664l5.376 1.184 102.24-102.272z" p-id="2931"></path></svg>