<?xml version="1.0" standalone="no"?><!DOCTYPE svg PUBLIC "-//W3C//DTD SVG 1.1//EN" "http://www.w3.org/Graphics/SVG/1.1/DTD/svg11.dtd"><svg t="1598773440145" class="icon" viewBox="0 0 1024 1024" version="1.1" xmlns="http://www.w3.org/2000/svg" p-id="3636" xmlns:xlink="http://www.w3.org/1999/xlink" width="200" height="200"><defs><style type="text/css"></style></defs><path d="M512 99c-213.4 0-387 173.6-387 387s173.6 387 387 387 387-173.6 387-387S725.4 99 512 99z m199.9 422.6H294.4c-14 0-25.5-11.4-25.5-25.5 0-14 11.4-25.5 25.5-25.5h417.5c14 0 25.5 11.4 25.5 25.5s-11.4 25.5-25.5 25.5z" fill="#FFFFFF" p-id="3637"></path><path d="M512 48.1C270.5 48.1 74.1 244.5 74.1 486S270.5 923.9 512 923.9c241.4 0 437.9-196.4 437.9-437.9S753.4 48.1 512 48.1z m0 824.9c-213.4 0-387-173.6-387-387S298.6 99 512 99s387 173.6 387 387-173.6 387-387 387z" fill="" p-id="3638"></path><path d="M711.9 470.7H294.4c-14 0-25.5 11.4-25.5 25.5 0 14 11.4 25.5 25.5 25.5h417.5c14 0 25.5-11.4 25.5-25.5s-11.4-25.5-25.5-25.5z" fill="" p-id="3639"></path></svg>