<?xml version="1.0" standalone="no"?><!DOCTYPE svg PUBLIC "-//W3C//DTD SVG 1.1//EN" "http://www.w3.org/Graphics/SVG/1.1/DTD/svg11.dtd"><svg t="1598185816355" class="icon" viewBox="0 0 1024 1024" version="1.1" xmlns="http://www.w3.org/2000/svg" p-id="6034" xmlns:xlink="http://www.w3.org/1999/xlink" width="200" height="200"><defs><style type="text/css"></style></defs><path d="M874.112 769.61066667c-19.78666667-46.79466667-48.11733333-88.8-84.192-124.87466667-36.07466667-36.07466667-78.09066667-64.39466667-124.87466667-84.192a391.456 391.456 0 0 0-15.328-6.10133333c74.336-46.10133333 123.85066667-128.43733333 123.85066667-222.336 0-144.40533333-117.056-261.46133333-261.46133333-261.46133334S250.64533333 187.70133333 250.64533333 332.10666667c0 93.90933333 49.51466667 176.23466667 123.85066667 222.336-5.14133333 1.92-10.25066667 3.95733333-15.328 6.10133333-46.79466667 19.78666667-88.8 48.11733333-124.87466667 84.192-36.07466667 36.07466667-64.39466667 78.09066667-84.192 124.87466667-20.50133333 48.45866667-30.89066667 99.91466667-30.89066666 152.93866666 0 17.67466667 14.32533333 32 32 32s32-14.32533333 32-32c0-181.35466667 147.54133333-328.896 328.896-328.896s328.896 147.54133333 328.896 328.896c0 17.67466667 14.32533333 32 32 32s32-14.32533333 32-32c0-53.024-10.38933333-104.48-30.89066667-152.93866666z m-559.46666667-437.504c0-52.74666667 20.544-102.336 57.83466667-139.62666667 37.29066667-37.29066667 86.88-57.83466667 139.62666667-57.83466667s102.336 20.544 139.62666666 57.83466667c37.29066667 37.29066667 57.83466667 86.88 57.83466667 139.62666667s-20.544 102.336-57.83466667 139.62666666c-37.29066667 37.29066667-86.88 57.83466667-139.62666666 57.83466667s-102.336-20.544-139.62666667-57.83466667c-37.30133333-37.30133333-57.83466667-86.88-57.83466667-139.62666666z" p-id="6035"></path></svg>